P2
# pulsar_OMP1.pgm
17 17
1
0	0	0	0	0	0	0	0	0	0	0	0	0	0	0	0	0
0	0	0	0	0	1	0	0	0	0	0	1	0	0	0	0	0
0	0	0	0	0	1	0	0	0	0	0	1	0	0	0	0	0
0	0	0	0	0	1	1	0	0	0	1	1	0	0	0	0	0
0	0	0	0	0	0	0	0	0	0	0	0	0	0	0	0	0
0	1	1	1	0	0	1	1	0	1	1	0	0	1	1	1	0
0	0	0	1	0	1	0	1	0	1	0	1	0	1	0	0	0
0	0	0	0	0	1	1	0	0	0	1	1	0	0	0	0	0
0	0	0	0	0	0	0	0	0	0	0	0	0	0	0	0	0
0	0	0	0	0	1	1	0	0	0	1	1	0	0	0	0	0
0	0	0	1	0	1	0	1	0	1	0	1	0	1	0	0	0
0	1	1	1	0	0	1	1	0	1	1	0	0	1	1	1	0
0	0	0	0	0	0	0	0	0	0	0	0	0	0	0	0	0
0	0	0	0	0	1	1	0	0	0	1	1	0	0	0	0	0
0	0	0	0	0	1	0	0	0	0	0	1	0	0	0	0	0
0	0	0	0	0	1	0	0	0	0	0	1	0	0	0	0	0
0	0	0	0	0	0	0	0	0	0	0	0	0	0	0	0	0
