P2
# pulsar_OMP5.pgm
17 17
1
0	0	0	0	0	0	0	0	0	0	0	0	0	0	0	0	0
0	0	0	0	0	0	0	0	0	0	0	0	0	0	0	0	0
0	0	0	0	1	1	0	0	0	0	0	1	1	0	0	0	0
0	0	0	0	0	1	1	0	0	0	1	1	0	0	0	0	0
0	0	1	0	0	1	0	1	0	1	0	1	0	0	1	0	0
0	0	1	1	1	0	1	1	0	1	1	0	1	1	1	0	0
0	0	0	1	0	1	0	1	0	1	0	1	0	1	0	0	0
0	0	0	0	1	1	1	0	0	0	1	1	1	0	0	0	0
0	0	0	0	0	0	0	0	0	0	0	0	0	0	0	0	0
0	0	0	0	1	1	1	0	0	0	1	1	1	0	0	0	0
0	0	0	1	0	1	0	1	0	1	0	1	0	1	0	0	0
0	0	1	1	1	0	1	1	0	1	1	0	1	1	1	0	0
0	0	1	0	0	1	0	1	0	1	0	1	0	0	1	0	0
0	0	0	0	0	1	1	0	0	0	1	1	0	0	0	0	0
0	0	0	0	1	1	0	0	0	0	0	1	1	0	0	0	0
0	0	0	0	0	0	0	0	0	0	0	0	0	0	0	0	0
0	0	0	0	0	0	0	0	0	0	0	0	0	0	0	0	0
